<svg width="130" height="143" viewBox="0 0 130 143" fill="none" xmlns="http://www.w3.org/2000/svg">
<path opacity="0.15" d="M28.5771 138.5C28.5771 139.461 32.3963 140.383 39.1945 141.063C45.9927 141.743 55.213 142.125 64.8271 142.125C74.4412 142.125 83.6616 141.743 90.4598 141.063C97.2579 140.383 101.077 139.461 101.077 138.5C101.077 137.539 97.2579 136.617 90.4598 135.937C83.6616 135.257 74.4412 134.875 64.8271 134.875C55.213 134.875 45.9927 135.257 39.1945 135.937C32.3963 136.617 28.5771 137.539 28.5771 138.5Z" fill="#45413C"/>
<path d="M48.7497 70.4167H81.2497H48.7497ZM64.9997 54.1667V86.6667V54.1667ZM92.083 113.75H37.9163C35.0432 113.75 32.2877 112.609 30.256 110.577C28.2244 108.545 27.083 105.79 27.083 102.917V27.0833C27.083 24.2102 28.2244 21.4547 30.256 19.423C32.2877 17.3914 35.0432 16.25 37.9163 16.25H68.1738C69.6103 16.2503 70.9878 16.8212 72.0034 17.8371L101.329 47.1629C102.345 48.1785 102.916 49.556 102.916 50.9925V102.917C102.916 105.79 101.775 108.545 99.7433 110.577C97.7117 112.609 94.9562 113.75 92.083 113.75Z" stroke="#9A9A9A" stroke-width="2" stroke-linecap="round" stroke-linejoin="round"/>
</svg>
