<svg width="312" height="42" viewBox="0 0 312 42" fill="none" xmlns="http://www.w3.org/2000/svg">
<path d="M39.1829 42.0001H24.9439L16.5439 27.1464L23.6634 14.5464L39.1829 42.0001Z" fill="#666666"/>
<path d="M14.7 42H0L24.0219 0H38.7219L14.7 42Z" fill="#3352EF"/>
<path d="M39.7468 42H25.0469L49.0688 0H63.7687L39.7468 42Z" fill="#3352EF"/>
<path d="M81.9512 42.0001H67.2L58.5439 27.1464L65.9195 14.5464L81.9512 42.0001Z" fill="#666666"/>
<g clip-path="url(#clip0_231_127)">
<path d="M103.698 9.45406C105.815 9.45406 107.653 9.81758 109.214 10.5446C110.774 11.2716 111.977 12.3103 112.824 13.6605C113.671 15.0107 114.094 16.5974 114.094 18.4208C114.094 20.2441 113.671 21.8251 112.824 23.1638C111.977 24.5024 110.774 25.5353 109.214 26.2623C107.653 26.9893 105.815 27.3529 103.698 27.3529H99.6191V33.6884H93V9.45406H103.698ZM103.296 21.9521C104.656 21.9521 105.681 21.6463 106.372 21.0346C107.063 20.423 107.408 19.5517 107.408 18.4208C107.408 17.2898 107.063 16.4128 106.372 15.7896C105.681 15.1664 104.656 14.8549 103.296 14.8549H99.6191V21.9521H103.296ZM124.558 14.6125C127.567 14.6125 129.862 15.3222 131.445 16.7417C133.027 18.1611 133.818 20.3364 133.818 23.2676V33.6884H127.901V31.265C126.987 33.0883 125.204 34 122.552 34C121.148 34 119.933 33.7461 118.908 33.2383C117.883 32.7306 117.109 32.0439 116.585 31.1784C116.061 30.3129 115.799 29.3262 115.799 28.2184C115.799 26.4412 116.457 25.0621 117.772 24.0812C119.087 23.1003 121.115 22.6099 123.856 22.6099H127.466C127.355 20.6249 126.073 19.6325 123.622 19.6325C122.753 19.6325 121.872 19.7767 120.981 20.0652C120.089 20.3538 119.332 20.7519 118.708 21.2597L116.568 16.7936C117.571 16.1012 118.791 15.5646 120.229 15.1838C121.666 14.8029 123.109 14.6125 124.558 14.6125ZM124.324 29.8455C125.059 29.8455 125.706 29.6609 126.263 29.2916C126.82 28.9223 127.221 28.3799 127.466 27.6644V26.0373H124.725C122.875 26.0373 121.95 26.672 121.95 27.9414C121.95 28.5184 122.162 28.98 122.586 29.3262C123.009 29.6724 123.588 29.8455 124.324 29.8455ZM143.88 17.1744C144.527 16.3205 145.368 15.68 146.404 15.253C147.441 14.826 148.628 14.6125 149.965 14.6125V20.5326C149.385 20.4634 148.906 20.4288 148.527 20.4288C147.168 20.4288 146.104 20.8096 145.335 21.5712C144.566 22.3329 144.181 23.4984 144.181 25.0679V33.6884H137.83V14.9241H143.88V17.1744ZM165.877 33.6884L160.796 27.1105L158.924 29.0839V33.6884H152.572V8H158.924V21.4674L165.409 14.9241H172.931L165.409 22.9561L173.566 33.6884H165.877ZM186.504 9.45406C188.621 9.45406 190.46 9.81758 192.02 10.5446C193.58 11.2716 194.783 12.3103 195.63 13.6605C196.477 15.0107 196.9 16.5974 196.9 18.4208C196.9 20.2441 196.477 21.8251 195.63 23.1638C194.783 24.5024 193.58 25.5353 192.02 26.2623C190.46 26.9893 188.621 27.3529 186.504 27.3529H182.425V33.6884H175.806V9.45406H186.504ZM186.103 21.9521C187.462 21.9521 188.487 21.6463 189.178 21.0346C189.869 20.423 190.214 19.5517 190.214 18.4208C190.214 17.2898 189.869 16.4128 189.178 15.7896C188.487 15.1664 187.462 14.8549 186.103 14.8549H182.425V21.9521H186.103ZM200.143 33.6884V8H206.495V33.6884H200.143ZM218.329 14.6125C221.338 14.6125 223.633 15.3222 225.216 16.7417C226.798 18.1611 227.589 20.3364 227.589 23.2676V33.6884H221.672V31.265C220.758 33.0883 218.975 34 216.323 34C214.919 34 213.705 33.7461 212.679 33.2383C211.654 32.7306 210.88 32.0439 210.356 31.1784C209.832 30.3129 209.57 29.3262 209.57 28.2184C209.57 26.4412 210.228 25.0621 211.543 24.0812C212.858 23.1003 214.886 22.6099 217.627 22.6099H221.238C221.126 20.6249 219.845 19.6325 217.393 19.6325C216.524 19.6325 215.644 19.7767 214.752 20.0652C213.861 20.3538 213.103 20.7519 212.479 21.2597L210.339 16.7936C211.342 16.1012 212.562 15.5646 214 15.1838C215.437 14.8029 216.88 14.6125 218.329 14.6125ZM218.095 29.8455C218.831 29.8455 219.477 29.6609 220.034 29.2916C220.591 28.9223 220.992 28.3799 221.238 27.6644V26.0373H218.496C216.646 26.0373 215.722 26.672 215.722 27.9414C215.722 28.5184 215.933 28.98 216.357 29.3262C216.78 29.6724 217.36 29.8455 218.095 29.8455ZM243.402 14.6125C245.653 14.6125 247.463 15.3049 248.834 16.6897C250.205 18.0746 250.89 20.1633 250.89 22.9561V33.6884H244.538V24.0293C244.538 21.4674 243.546 20.1864 241.563 20.1864C240.471 20.1864 239.596 20.5557 238.939 21.2943C238.281 22.0328 237.953 23.1407 237.953 24.6178V33.6884H231.601V14.9241H237.652V16.9667C238.365 16.2051 239.212 15.6223 240.192 15.2184C241.173 14.8145 242.243 14.6125 243.402 14.6125ZM266.669 14.6125C268.92 14.6125 270.731 15.3049 272.101 16.6897C273.472 18.0746 274.157 20.1633 274.157 22.9561V33.6884H267.806V24.0293C267.806 21.4674 266.814 20.1864 264.83 20.1864C263.738 20.1864 262.863 20.5557 262.206 21.2943C261.549 22.0328 261.22 23.1407 261.22 24.6178V33.6884H254.868V14.9241H260.919V16.9667C261.632 16.2051 262.479 15.6223 263.46 15.2184C264.44 14.8145 265.51 14.6125 266.669 14.6125ZM296.923 24.3409C296.923 24.387 296.89 24.9294 296.823 25.968H283.651C283.919 26.9374 284.437 27.6818 285.206 28.2011C285.975 28.7204 286.939 28.98 288.098 28.98C288.967 28.98 289.719 28.8531 290.354 28.5992C290.989 28.3453 291.63 27.9299 292.276 27.3529L295.619 30.9534C293.859 32.9845 291.285 34 287.897 34C285.78 34 283.919 33.5846 282.314 32.7537C280.71 31.9228 279.467 30.7688 278.587 29.2916C277.706 27.8145 277.266 26.1411 277.266 24.2716C277.266 22.4252 277.695 20.7692 278.553 19.3036C279.411 17.838 280.598 16.6897 282.114 15.8589C283.629 15.028 285.334 14.6125 287.228 14.6125C289.034 14.6125 290.672 14.9991 292.143 15.7723C293.614 16.5455 294.778 17.6649 295.636 19.1305C296.494 20.5961 296.923 22.3329 296.923 24.3409ZM287.262 19.2863C286.281 19.2863 285.462 19.5748 284.805 20.1518C284.147 20.7288 283.729 21.5135 283.551 22.506H290.973C290.794 21.5135 290.376 20.7288 289.719 20.1518C289.061 19.5748 288.242 19.2863 287.262 19.2863ZM305.916 17.1744C306.562 16.3205 307.403 15.68 308.44 15.253C309.476 14.826 310.663 14.6125 312 14.6125V20.5326C311.421 20.4634 310.941 20.4288 310.563 20.4288C309.203 20.4288 308.139 20.8096 307.37 21.5712C306.601 22.3329 306.217 23.4984 306.217 25.0679V33.6884H299.865V14.9241H305.916V17.1744Z" fill="#3352EF"/>
</g>
<defs>
<clipPath id="clip0_231_127">
<rect width="219" height="26" fill="white" transform="translate(93 8)"/>
</clipPath>
</defs>
</svg>
