<svg width="353" height="221" viewBox="0 0 353 221" fill="none" xmlns="http://www.w3.org/2000/svg">
<path d="M80.5274 140.423C79.6957 140.424 78.8984 140.754 78.3104 141.34C77.7223 141.926 77.3916 142.721 77.3906 143.55V150.866C77.3916 151.695 77.7223 152.49 78.3104 153.076C78.8984 153.663 79.6957 153.992 80.5274 153.993H84.506C85.3376 153.992 86.1349 153.663 86.723 153.076C87.311 152.49 87.6418 151.695 87.6427 150.866V143.55C87.6418 142.721 87.311 141.926 86.723 141.34C86.1349 140.754 85.3376 140.424 84.506 140.423H80.5274Z" fill="#3F3D56"/>
<path d="M154.074 154.237H150.096C149.199 154.236 148.34 153.88 147.706 153.248C147.072 152.616 146.716 151.76 146.715 150.866V143.55C146.716 142.656 147.072 141.8 147.706 141.168C148.34 140.536 149.199 140.18 150.096 140.179H154.074C154.971 140.18 155.83 140.536 156.464 141.168C157.098 141.8 157.454 142.656 157.455 143.55V150.866C157.454 151.76 157.098 152.616 156.464 153.248C155.83 153.88 154.971 154.236 154.074 154.237Z" fill="#3F3D56"/>
<path d="M151.434 148.379H82.9232C79.8052 148.379 77.2686 146.547 77.2686 144.294V131.16L80.6691 127.59H154.35L157.089 131.168V144.294C157.089 146.547 154.552 148.379 151.434 148.379Z" fill="#CCCCCC"/>
<path d="M154.03 134.16H81.0599L80.3184 122.825L80.7902 121.665L83.5331 114.936H151.063L154.772 122.577L154.03 134.16Z" fill="#CCCCCC"/>
<path d="M154.648 122.601L154.103 131.118H138.049V124.791L154.191 121.662L154.648 122.601Z" fill="white"/>
<path d="M96.7962 124.791V131.118H80.9834L80.4414 122.844L80.9029 121.71L96.7962 124.791Z" fill="white"/>
<path d="M150.656 116.882H83.9395L91.0553 93.2356C91.3455 92.259 91.9431 91.4014 92.7599 90.7895C93.5767 90.1776 94.5693 89.8439 95.591 89.8378L139.775 89.4182C140.843 89.4079 141.883 89.754 142.73 90.4015C143.578 91.049 144.183 91.9606 144.451 92.991L150.656 116.882Z" fill="#CCCCCC"/>
<path d="M145.52 114.646L89.065 113.979C88.9937 113.978 88.9235 113.961 88.8601 113.928C88.7968 113.895 88.7421 113.848 88.7003 113.79C88.6586 113.732 88.631 113.666 88.6199 113.595C88.6087 113.525 88.6142 113.453 88.636 113.386L94.0482 96.5513C94.0777 96.4596 94.1356 96.3795 94.2137 96.3227C94.2918 96.266 94.3859 96.2354 94.4826 96.2354H139.891C139.987 96.2354 140.082 96.2659 140.16 96.3227C140.238 96.3794 140.296 96.4594 140.325 96.5511L145.96 114.053C145.982 114.121 145.988 114.194 145.976 114.265C145.964 114.337 145.936 114.404 145.893 114.462C145.85 114.52 145.794 114.567 145.729 114.599C145.664 114.631 145.593 114.647 145.52 114.646Z" fill="white"/>
<path d="M124.906 92.3039H109.689C109.561 92.3039 109.444 92.1781 109.385 91.9754C109.327 91.7678 109.335 91.5471 109.41 91.3446L110.664 88.1811C110.728 88.0198 110.833 87.9236 110.944 87.9236H123.651C123.762 87.9236 123.866 88.0198 123.93 88.1811L125.185 91.3446C125.26 91.5471 125.268 91.7678 125.209 91.9754C125.15 92.1781 125.034 92.3039 124.906 92.3039Z" fill="#2B49F0"/>
<path d="M83.9817 116.396H73.9736V114.203C73.9744 113.494 74.2573 112.814 74.7601 112.313C75.263 111.811 75.9447 111.529 76.6559 111.529H83.9817V116.396Z" fill="#CCCCCC"/>
<path d="M160.627 116.396H150.619V111.529H157.945C158.656 111.529 159.338 111.811 159.841 112.313C160.344 112.814 160.626 113.494 160.627 114.203V116.396Z" fill="#CCCCCC"/>
<path d="M72.8026 150.582L23.876 168.104L24.0837 168.68L73.0103 151.158L72.8026 150.582Z" fill="#3F3D56"/>
<path d="M161.491 150.583L161.283 151.159L210.211 168.677L210.419 168.101L161.491 150.583Z" fill="#3F3D56"/>
<path d="M120.019 163.288H117.091V159.517H120.019V163.288ZM120.019 155.746H117.091V151.975H120.019V155.746Z" fill="#E6E6E6"/>
<path d="M120.019 178.909H117.091V175.138H120.019V178.909ZM120.019 171.367H117.091V167.596H120.019V171.367Z" fill="#E6E6E6"/>
<path d="M117.213 76.9278C125.237 76.9278 131.742 70.4427 131.742 62.443C131.742 54.4433 125.237 47.9583 117.213 47.9583C109.189 47.9583 102.684 54.4433 102.684 62.443C102.684 70.4427 109.189 76.9278 117.213 76.9278Z" fill="#2B49F0"/>
<path d="M115.827 68.5574L111.479 62.9831L114.007 61.0222L116.066 63.6616L123.022 56.3411L125.348 58.5381L115.827 68.5574Z" fill="white"/>
<path d="M305.791 169.398H232.361C232.279 169.398 232.201 169.366 232.144 169.309C232.086 169.251 232.054 169.173 232.054 169.092C232.054 169.011 232.086 168.933 232.144 168.876C232.201 168.818 232.279 168.786 232.361 168.786H305.791C305.872 168.786 305.95 168.818 306.008 168.876C306.065 168.933 306.098 169.011 306.098 169.092C306.098 169.173 306.065 169.251 306.008 169.309C305.95 169.366 305.872 169.398 305.791 169.398Z" fill="#3F3D56"/>
<path d="M231.105 78.502C231.511 78.4703 231.919 78.5351 232.3 78.6919C232.681 78.8486 233.026 79.0935 233.309 79.4093C233.593 79.725 233.809 80.104 233.942 80.5194C234.075 80.9349 234.122 81.3768 234.079 81.8139L243.052 86.349L238.66 89.2482L230.813 84.4971C230.136 84.3715 229.526 83.9827 229.098 83.4045C228.67 82.8262 228.453 82.0987 228.489 81.3597C228.525 80.6208 228.811 79.9217 229.293 79.395C229.775 78.8683 230.42 78.5505 231.105 78.502Z" fill="#FFB6B6"/>
<path d="M268.234 165.757L265.135 165.757L263.661 152.871L268.234 152.871L268.234 165.757Z" fill="#FFB6B6"/>
<path d="M269.024 164.666L262.922 164.666H262.922C261.89 164.666 260.901 165.108 260.172 165.894C259.442 166.68 259.033 167.747 259.033 168.859V168.995L269.024 168.995L269.024 164.666Z" fill="#2F2E41"/>
<path d="M252.423 165.757L249.325 165.757L247.85 152.871L252.424 152.871L252.423 165.757Z" fill="#FFB6B6"/>
<path d="M253.212 164.666L247.109 164.666H247.109C246.078 164.666 245.089 165.108 244.359 165.894C243.63 166.68 243.22 167.747 243.22 168.859V168.995L253.212 168.995L253.212 164.666Z" fill="#2F2E41"/>
<path d="M250.351 98.9197L248.779 102.57L245.943 135.218L248.147 163.28H253.302L259.385 119.048L262.242 162.261L269.198 161.958L270.533 103.371L250.351 98.9197Z" fill="#2F2E41"/>
<path d="M275.415 68.7918L268.894 65.9316L259.691 66.4881L251.508 69.7029L248.779 102.57C255.897 106.761 263.107 107.905 270.443 104.908L277.252 83.501L275.415 68.7918Z" fill="#E4E4E4"/>
<path d="M254.055 70.5717L251.161 69.7028C251.161 69.7028 248.973 68.1685 248.252 72.7293C247.532 77.2901 243.827 84.3842 243.827 84.3842L237.484 80.7397L234.548 87.654L244.565 94.1959L255.113 82.7366L254.055 70.5717Z" fill="#E4E4E4"/>
<path d="M269.928 59.8423C270.279 58.9827 270.47 58.0568 270.49 57.1176C270.509 56.1784 270.357 55.2442 270.041 54.3685C269.726 53.4927 269.254 52.6925 268.652 52.0135C268.049 51.3345 267.329 50.7901 266.532 50.4112C265.734 50.0324 264.876 49.8265 264.005 49.8055C263.133 49.7845 262.267 49.9486 261.455 50.2886C260.642 50.6286 259.9 51.1377 259.27 51.787C258.641 52.4362 258.136 53.2128 257.784 54.0725L257.746 54.1671C257.048 55.9091 257.02 57.8787 257.669 59.6427C257.99 60.5161 258.468 61.3128 259.075 61.9872C259.682 62.6616 260.406 63.2006 261.206 63.5733C262.821 64.326 264.648 64.356 266.284 63.6565C267.921 62.957 269.232 61.5854 269.93 59.8435L269.928 59.8423Z" fill="#FFB6B6"/>
<path d="M260.921 53.2949C259.541 53.5648 257.406 54.5013 256.221 53.4027C256.807 52.6654 257.543 52.0849 258.372 51.707C258.535 51.6486 258.686 51.5565 258.817 51.4358C259.221 50.9956 258.909 50.2372 259.093 49.6421C259.183 49.4246 259.319 49.2326 259.489 49.0811C259.659 48.9297 259.86 48.823 260.075 48.7694C260.486 48.6367 260.917 48.6152 261.321 48.4543C262.277 48.0669 262.957 46.9583 263.937 46.657C264.791 46.3907 265.65 46.8046 266.387 47.2875C267.124 47.7705 267.853 48.3435 268.715 48.4351C269.359 48.4985 269.767 49.641 270.414 49.6744C271.769 49.7455 271.694 48.7824 271.794 50.3175C271.852 51.2335 273.066 53.0559 273.046 53.9799C273.026 54.5854 273.126 55.185 273.11 55.7924C273.073 56.9491 272.643 58.0508 271.901 58.8871C271.284 59.5713 270.481 60.0327 269.962 60.8125C269.692 61.2264 269.504 61.7097 269.19 62.0842C268.875 62.4588 268.343 62.6842 267.992 62.4168C267.641 62.1494 267.634 61.5707 267.46 61.1303C267.354 60.8603 267.171 60.633 266.939 60.4804C266.706 60.3278 266.435 60.2574 266.163 60.2791C265.881 60.3188 265.615 60.4426 265.395 60.6365C265.175 60.8304 265.009 61.0867 264.916 61.3767C265.081 60.4034 265.514 59.4915 265.679 58.5176C265.843 57.5436 265.629 56.3801 264.851 55.9998C264.517 55.8322 264.066 55.7872 263.931 55.4011C263.849 55.1685 263.924 54.8937 263.893 54.6422C263.722 53.4096 261.821 53.1046 260.921 53.2949Z" fill="#2F2E41"/>
<path d="M269.664 104.528C269.723 104.093 269.871 103.678 270.095 103.311C270.32 102.944 270.616 102.635 270.963 102.405C271.311 102.175 271.701 102.03 272.106 101.98C272.511 101.93 272.921 101.976 273.308 102.116L279.359 93.6553L281.032 98.9061L275.029 106.135C274.769 106.82 274.284 107.378 273.668 107.703C273.051 108.029 272.346 108.099 271.684 107.901C271.023 107.703 270.452 107.25 270.08 106.628C269.707 106.007 269.559 105.26 269.664 104.528Z" fill="#FFB6B6"/>
<path d="M273.326 70.3873L275.416 68.7915C275.416 68.7915 280.198 68.4962 280.894 72.7291L289.662 88.2805L278.79 104.451L273.52 98.4688L280.17 90.0895L274.586 79.0358L273.326 70.3873Z" fill="#E4E4E4"/>
<path d="M222.401 72.8518H222.511V69.613C222.511 69.3669 222.556 69.1231 222.643 68.8957C222.73 68.6683 222.859 68.4616 223.02 68.2876C223.181 68.1135 223.373 67.9754 223.584 67.8812C223.795 67.787 224.021 67.7385 224.249 67.7385H230.614C230.842 67.7385 231.068 67.787 231.279 67.8812C231.49 67.9754 231.682 68.1135 231.843 68.2876C232.005 68.4616 232.133 68.6683 232.22 68.8957C232.308 69.1231 232.353 69.3669 232.353 69.613V87.3812C232.353 87.6274 232.308 87.8711 232.22 88.0986C232.133 88.326 232.005 88.5326 231.843 88.7067C231.682 88.8808 231.49 89.0188 231.279 89.113C231.068 89.2072 230.842 89.2557 230.614 89.2557H224.249C224.021 89.2557 223.795 89.2072 223.584 89.113C223.373 89.0188 223.181 88.8808 223.02 88.7067C222.859 88.5326 222.73 88.326 222.643 88.0986C222.556 87.8711 222.511 87.6274 222.511 87.3812V75.1572H222.401V72.8518Z" fill="#3F3D56"/>
<path d="M224.18 68.2261H225.011C224.973 68.3271 224.958 68.4366 224.969 68.5451C224.979 68.6536 225.014 68.7577 225.07 68.8482C225.127 68.9387 225.203 69.0129 225.292 69.0642C225.382 69.1155 225.481 69.1423 225.582 69.1423H229.229C229.33 69.1423 229.429 69.1155 229.519 69.0642C229.608 69.0129 229.684 68.9387 229.74 68.8482C229.797 68.7577 229.832 68.6536 229.842 68.5451C229.852 68.4366 229.838 68.3271 229.8 68.2261H230.576C230.92 68.2261 231.25 68.3736 231.494 68.6361C231.737 68.8986 231.874 69.2547 231.874 69.6259V87.3681C231.874 87.7393 231.737 88.0954 231.494 88.3579C231.25 88.6204 230.92 88.7679 230.576 88.7679H224.18C223.836 88.7679 223.506 88.6204 223.262 88.3579C223.019 88.0954 222.882 87.7393 222.882 87.3681V69.6259C222.882 69.2547 223.019 68.8986 223.262 68.6361C223.506 68.3736 223.836 68.2261 224.18 68.2261Z" fill="#80AFE8"/>
<rect width="353" height="221" rx="28.6" fill="#80AFE8" fill-opacity="0.09"/>
</svg>
