<svg width="219" height="26" viewBox="0 0 219 26" fill="none" xmlns="http://www.w3.org/2000/svg">
<g clip-path="url(#clip0_312_146)">
<path d="M10.6976 1.45406C12.8148 1.45406 14.6535 1.81758 16.2136 2.54461C17.7736 3.27164 18.9771 4.31025 19.824 5.66045C20.6709 7.01065 21.0943 8.59743 21.0943 10.4208C21.0943 12.2441 20.6709 13.8251 19.824 15.1638C18.9771 16.5024 17.7736 17.5353 16.2136 18.2623C14.6535 18.9893 12.8148 19.3529 10.6976 19.3529H6.61914V25.6884H0V1.45406H10.6976ZM10.2964 13.9521C11.6559 13.9521 12.6811 13.6463 13.372 13.0346C14.0629 12.423 14.4083 11.5517 14.4083 10.4208C14.4083 9.28984 14.0629 8.41278 13.372 7.78961C12.6811 7.16644 11.6559 6.85486 10.2964 6.85486H6.61914V13.9521H10.2964ZM31.5579 6.61252C34.5666 6.61252 36.8622 7.32224 38.4445 8.74168C40.0269 10.1611 40.818 12.3364 40.818 15.2676V25.6884H34.9009V23.265C33.9872 25.0883 32.2042 26 29.5521 26C28.1481 26 26.9334 25.7461 25.9083 25.2383C24.8831 24.7306 24.1086 24.0439 23.5849 23.1784C23.0611 22.3129 22.7993 21.3262 22.7993 20.2184C22.7993 18.4412 23.4567 17.0621 24.7716 16.0812C26.0866 15.1003 28.1146 14.6099 30.8559 14.6099H34.4663C34.3549 12.6249 33.0734 11.6325 30.6219 11.6325C29.7527 11.6325 28.8724 11.7767 27.9809 12.0652C27.0895 12.3538 26.3317 12.7519 25.7077 13.2597L23.5682 8.79361C24.5711 8.1012 25.7913 7.56458 27.2287 7.18376C28.6662 6.80293 30.1093 6.61252 31.5579 6.61252ZM31.3239 21.8455C32.0594 21.8455 32.7057 21.6609 33.2629 21.2916C33.82 20.9223 34.2212 20.3799 34.4663 19.6644V18.0373H31.7251C29.8753 18.0373 28.9504 18.672 28.9504 19.9414C28.9504 20.5184 29.1621 20.98 29.5856 21.3262C30.009 21.6724 30.5885 21.8455 31.3239 21.8455ZM50.8805 9.17443C51.5268 8.32046 52.3681 7.67998 53.4044 7.253C54.4408 6.82601 55.6275 6.61252 56.9647 6.61252V12.5326C56.3853 12.4634 55.9061 12.4288 55.5272 12.4288C54.1678 12.4288 53.1036 12.8096 52.3347 13.5712C51.5658 14.3329 51.1814 15.4984 51.1814 17.0679V25.6884H44.8296V6.9241H50.8805V9.17443ZM72.8774 25.6884L67.7961 19.1105L65.924 21.0839V25.6884H59.5723V0H65.924V13.4674L72.4094 6.9241H79.9312L72.4094 14.9561L80.5663 25.6884H72.8774ZM93.5037 1.45406C95.621 1.45406 97.4596 1.81758 99.0197 2.54461C100.58 3.27164 101.783 4.31025 102.63 5.66045C103.477 7.01065 103.9 8.59743 103.9 10.4208C103.9 12.2441 103.477 13.8251 102.63 15.1638C101.783 16.5024 100.58 17.5353 99.0197 18.2623C97.4596 18.9893 95.621 19.3529 93.5037 19.3529H89.4253V25.6884H82.8061V1.45406H93.5037ZM93.1026 13.9521C94.4621 13.9521 95.4873 13.6463 96.1781 13.0346C96.869 12.423 97.2145 11.5517 97.2145 10.4208C97.2145 9.28984 96.869 8.41278 96.1781 7.78961C95.4873 7.16644 94.4621 6.85486 93.1026 6.85486H89.4253V13.9521H93.1026ZM107.143 25.6884V0H113.495V25.6884H107.143ZM125.329 6.61252C128.338 6.61252 130.633 7.32224 132.216 8.74168C133.798 10.1611 134.589 12.3364 134.589 15.2676V25.6884H128.672V23.265C127.758 25.0883 125.975 26 123.323 26C121.919 26 120.705 25.7461 119.679 25.2383C118.654 24.7306 117.88 24.0439 117.356 23.1784C116.832 22.3129 116.57 21.3262 116.57 20.2184C116.57 18.4412 117.228 17.0621 118.543 16.0812C119.858 15.1003 121.886 14.6099 124.627 14.6099H128.238C128.126 12.6249 126.845 11.6325 124.393 11.6325C123.524 11.6325 122.644 11.7767 121.752 12.0652C120.861 12.3538 120.103 12.7519 119.479 13.2597L117.339 8.79361C118.342 8.1012 119.562 7.56458 121 7.18376C122.437 6.80293 123.88 6.61252 125.329 6.61252ZM125.095 21.8455C125.831 21.8455 126.477 21.6609 127.034 21.2916C127.591 20.9223 127.992 20.3799 128.238 19.6644V18.0373H125.496C123.646 18.0373 122.722 18.672 122.722 19.9414C122.722 20.5184 122.933 20.98 123.357 21.3262C123.78 21.6724 124.36 21.8455 125.095 21.8455ZM150.402 6.61252C152.653 6.61252 154.463 7.30493 155.834 8.68975C157.205 10.0746 157.89 12.1633 157.89 14.9561V25.6884H151.538V16.0293C151.538 13.4674 150.546 12.1864 148.563 12.1864C147.471 12.1864 146.596 12.5557 145.939 13.2943C145.281 14.0328 144.953 15.1407 144.953 16.6178V25.6884H138.601V6.9241H144.652V8.96671C145.365 8.20506 146.212 7.62228 147.192 7.21838C148.173 6.81447 149.243 6.61252 150.402 6.61252ZM173.669 6.61252C175.92 6.61252 177.731 7.30493 179.101 8.68975C180.472 10.0746 181.157 12.1633 181.157 14.9561V25.6884H174.806V16.0293C174.806 13.4674 173.814 12.1864 171.83 12.1864C170.738 12.1864 169.863 12.5557 169.206 13.2943C168.549 14.0328 168.22 15.1407 168.22 16.6178V25.6884H161.868V6.9241H167.919V8.96671C168.632 8.20506 169.479 7.62228 170.46 7.21838C171.44 6.81447 172.51 6.61252 173.669 6.61252ZM203.923 16.3409C203.923 16.387 203.89 16.9294 203.823 17.968H190.651C190.919 18.9374 191.437 19.6818 192.206 20.2011C192.975 20.7204 193.939 20.98 195.098 20.98C195.967 20.98 196.719 20.8531 197.354 20.5992C197.989 20.3453 198.63 19.9299 199.276 19.3529L202.619 22.9534C200.859 24.9845 198.285 26 194.897 26C192.78 26 190.919 25.5846 189.314 24.7537C187.71 23.9228 186.467 22.7688 185.587 21.2916C184.706 19.8145 184.266 18.1411 184.266 16.2716C184.266 14.4252 184.695 12.7692 185.553 11.3036C186.411 9.83799 187.598 8.68975 189.114 7.85885C190.629 7.02796 192.334 6.61252 194.228 6.61252C196.034 6.61252 197.672 6.99911 199.143 7.7723C200.614 8.54549 201.778 9.66489 202.636 11.1305C203.494 12.5961 203.923 14.3329 203.923 16.3409ZM194.262 11.2863C193.281 11.2863 192.462 11.5748 191.805 12.1518C191.147 12.7288 190.729 13.5135 190.551 14.506H197.973C197.794 13.5135 197.376 12.7288 196.719 12.1518C196.061 11.5748 195.242 11.2863 194.262 11.2863ZM212.916 9.17443C213.562 8.32046 214.403 7.67998 215.44 7.253C216.476 6.82601 217.663 6.61252 219 6.61252V12.5326C218.421 12.4634 217.941 12.4288 217.563 12.4288C216.203 12.4288 215.139 12.8096 214.37 13.5712C213.601 14.3329 213.217 15.4984 213.217 17.0679V25.6884H206.865V6.9241H212.916V9.17443Z" fill="#3352EF"/>
</g>
<defs>
<clipPath id="clip0_312_146">
<rect width="219" height="26" fill="white"/>
</clipPath>
</defs>
</svg>
