<svg width="30" height="30" viewBox="0 0 30 30" fill="none" xmlns="http://www.w3.org/2000/svg">
<path d="M25.9267 25.6912L18.6959 18.5127L25.9267 25.6912ZM21.1062 12.5305C21.1062 13.6303 20.888 14.7194 20.464 15.7355C20.0401 16.7516 19.4187 17.6748 18.6354 18.4525C17.852 19.2302 16.922 19.8471 15.8986 20.268C14.8751 20.6889 13.7781 20.9055 12.6703 20.9055C11.5625 20.9055 10.4655 20.6889 9.442 20.268C8.41851 19.8471 7.48854 19.2302 6.70519 18.4525C5.92185 17.6748 5.30046 16.7516 4.87652 15.7355C4.45258 14.7194 4.23437 13.6303 4.23438 12.5305C4.23438 10.3093 5.12316 8.17912 6.70519 6.6085C8.28723 5.03788 10.4329 4.15552 12.6703 4.15552C14.9076 4.15552 17.0533 5.03788 18.6354 6.6085C20.2174 8.17912 21.1062 10.3093 21.1062 12.5305Z" stroke="#313131" stroke-linecap="round" stroke-linejoin="round"/>
</svg>
